<svg xmlns="http://www.w3.org/2000/svg" xmlns:xlink="http://www.w3.org/1999/xlink" width="2000" zoomAndPan="magnify" viewBox="0 0 1500 1499.999933" height="2000" preserveAspectRatio="xMidYMid meet" version="1.0"><defs><clipPath id="3b7674e9fb"><path d="M 506 353 L 1000.644531 353 L 1000.644531 1349.996094 L 506 1349.996094 Z M 506 353 " clip-rule="nonzero"/></clipPath><clipPath id="5b65f9db19"><path d="M 878.570312 723.105469 L 928 723.105469 L 928 750 L 878.570312 750 Z M 878.570312 723.105469 " clip-rule="nonzero"/></clipPath></defs><g clip-path="url(#3b7674e9fb)"><path fill="#004b6b" d="M 1001.742188 727.121094 C 1001.742188 659.414062 946.710938 604.433594 879.050781 604.433594 C 868.5625 604.433594 858.421875 605.605469 848.734375 608.167969 C 824.875 614.253906 801.386719 607.796875 783.933594 590.367188 L 765.4375 571.925781 C 747.984375 554.390625 741.628906 530.851562 747.714844 506.9375 C 750.089844 497.304688 751.453125 487.132812 751.453125 476.671875 C 751.453125 408.960938 696.550781 354.171875 628.761719 353.984375 C 560.972656 353.984375 506.074219 408.960938 506.074219 476.671875 C 506.074219 544.542969 561.132812 599.363281 628.761719 599.363281 C 639.304688 599.363281 649.394531 598.1875 659.109375 595.625 C 683.101562 589.539062 706.535156 596 723.988281 613.425781 L 742.429688 631.789062 C 759.886719 649.429688 766.34375 672.945312 760.234375 696.855469 C 757.777344 706.492188 756.496094 716.582031 756.496094 727.121094 C 756.496094 737.585938 757.671875 747.753906 760.234375 757.386719 C 766.316406 781.460938 759.859375 804.921875 742.429688 822.347656 L 725.242188 839.617188 C 707.789062 857.070312 684.25 863.53125 660.363281 857.417969 C 650.726562 854.960938 640.558594 853.683594 630.097656 853.683594 C 562.199219 853.683594 507.40625 908.660156 507.40625 976.371094 C 507.40625 1043.976562 562.199219 1098.953125 630.097656 1098.953125 C 640.558594 1098.953125 650.726562 1097.78125 660.363281 1095.324219 C 684.277344 1089.132812 707.789062 1095.589844 725.242188 1113.046875 L 743.605469 1131.488281 C 761.058594 1149.128906 767.519531 1172.5625 761.40625 1196.476562 C 759.03125 1206.109375 757.671875 1216.277344 757.671875 1226.742188 C 757.671875 1294.453125 812.648438 1349.429688 880.308594 1349.429688 C 948.148438 1349.429688 1003.023438 1294.453125 1003.023438 1226.742188 C 1003.023438 1159.03125 947.988281 1104.050781 880.308594 1104.050781 C 869.84375 1104.050781 859.675781 1105.226562 850.042969 1107.789062 C 825.996094 1113.6875 802.507812 1107.335938 785.082031 1089.878906 L 766.664062 1071.4375 C 749.210938 1053.984375 742.75 1030.445312 748.863281 1006.636719 C 751.238281 997.003906 752.601562 986.832031 752.601562 976.292969 C 752.601562 965.828125 751.425781 955.660156 748.863281 946.027344 C 742.777344 922.03125 749.238281 898.492188 766.664062 881.039062 L 783.878906 863.769531 C 801.332031 846.421875 824.820312 839.964844 848.679688 846.046875 C 858.367188 848.425781 868.484375 849.785156 879 849.785156 C 946.894531 849.785156 1001.742188 794.804688 1001.742188 727.121094 " fill-opacity="1" fill-rule="evenodd"/></g><path fill="#004b6b" d="M 877.878906 304.742188 C 920.6875 304.742188 955.222656 270.3125 955.222656 227.582031 C 955.195312 184.960938 920.5 150.425781 877.878906 150.425781 C 835.253906 150.425781 800.71875 184.960938 800.71875 227.582031 C 800.71875 270.285156 835.203125 304.742188 877.878906 304.742188 " fill-opacity="1" fill-rule="evenodd"/><g clip-path="url(#5b65f9db19)"><path fill="#004b6b" d="M 914.433594 749.992188 C 909.230469 749.992188 904.445312 746.9375 902.238281 742.203125 C 901.460938 740.535156 899.859375 739.398438 898.023438 739.21875 C 897.855469 739.203125 897.683594 739.195312 897.515625 739.195312 C 895.863281 739.195312 894.296875 739.980469 893.308594 741.328125 C 891.78125 743.421875 889.328125 744.667969 886.753906 744.667969 C 882.273438 744.667969 878.628906 741.027344 878.628906 736.546875 C 878.628906 732.070312 882.273438 728.429688 886.75 728.429688 C 889.324219 728.429688 891.777344 729.679688 893.304688 731.769531 C 894.292969 733.121094 895.859375 733.902344 897.511719 733.902344 C 897.679688 733.902344 897.847656 733.894531 898.019531 733.878906 C 899.855469 733.699219 901.457031 732.5625 902.234375 730.894531 C 904.445312 726.160156 909.234375 723.105469 914.433594 723.105469 C 921.84375 723.105469 927.878906 729.136719 927.878906 736.546875 C 927.878906 743.960938 921.84375 749.992188 914.433594 749.992188 Z M 914.433594 749.992188 " fill-opacity="1" fill-rule="nonzero"/></g></svg>