<svg xmlns="http://www.w3.org/2000/svg" xmlns:xlink="http://www.w3.org/1999/xlink" width="1000" zoomAndPan="magnify" viewBox="0 0 750 374.999991" height="500" preserveAspectRatio="xMidYMid meet" version="1.0"><defs><g/><clipPath id="c025c16834"><path d="M 0.160156 88 L 69.140625 88 L 69.140625 227 L 0.160156 227 Z M 0.160156 88 " clip-rule="nonzero"/></clipPath><clipPath id="fe2a473733"><path d="M 41 60.109375 L 63 60.109375 L 63 82 L 41 82 Z M 41 60.109375 " clip-rule="nonzero"/></clipPath><clipPath id="04e3502174"><path d="M 94 0 L 643.601562 0 L 643.601562 303.121094 L 94 303.121094 Z M 94 0 " clip-rule="nonzero"/></clipPath><clipPath id="1b3d004dbe"><rect x="0" width="550" y="0" height="304"/></clipPath><clipPath id="0b16f6a0f1"><rect x="0" width="644" y="0" height="304"/></clipPath></defs><g transform="matrix(1, 0, 0, 1, 38, 36)"><g clip-path="url(#0b16f6a0f1)"><g clip-path="url(#c025c16834)"><path fill="#004b6b" d="M 69.292969 140.285156 C 69.292969 130.878906 61.648438 123.242188 52.25 123.242188 C 50.792969 123.242188 49.382812 123.402344 48.035156 123.761719 C 44.722656 124.605469 41.460938 123.707031 39.035156 121.285156 L 36.464844 118.726562 C 34.039062 116.289062 33.15625 113.019531 34.003906 109.695312 C 34.332031 108.359375 34.523438 106.945312 34.523438 105.492188 C 34.523438 96.085938 26.894531 88.472656 17.476562 88.449219 C 8.058594 88.449219 0.433594 96.085938 0.433594 105.492188 C 0.433594 114.921875 8.082031 122.535156 17.476562 122.535156 C 18.941406 122.535156 20.34375 122.375 21.695312 122.015625 C 25.027344 121.171875 28.28125 122.070312 30.707031 124.492188 L 33.269531 127.042969 C 35.695312 129.492188 36.589844 132.757812 35.742188 136.082031 C 35.402344 137.417969 35.222656 138.820312 35.222656 140.285156 C 35.222656 141.738281 35.386719 143.152344 35.742188 144.488281 C 36.585938 147.835938 35.691406 151.09375 33.269531 153.515625 L 30.882812 155.914062 C 28.457031 158.339844 25.1875 159.234375 21.867188 158.386719 C 20.527344 158.046875 19.117188 157.867188 17.664062 157.867188 C 8.230469 157.867188 0.617188 165.503906 0.617188 174.910156 C 0.617188 184.304688 8.230469 191.941406 17.664062 191.941406 C 19.117188 191.941406 20.527344 191.777344 21.867188 191.4375 C 25.191406 190.578125 28.457031 191.472656 30.882812 193.898438 L 33.433594 196.460938 C 35.855469 198.910156 36.753906 202.167969 35.90625 205.488281 C 35.574219 206.828125 35.386719 208.242188 35.386719 209.695312 C 35.386719 219.101562 43.023438 226.738281 52.421875 226.738281 C 61.847656 226.738281 69.472656 219.101562 69.472656 209.695312 C 69.472656 200.289062 61.824219 192.648438 52.421875 192.648438 C 50.96875 192.648438 49.558594 192.8125 48.21875 193.167969 C 44.878906 193.988281 41.613281 193.105469 39.195312 190.679688 L 36.636719 188.117188 C 34.210938 185.695312 33.3125 182.421875 34.164062 179.117188 C 34.492188 177.777344 34.679688 176.367188 34.679688 174.902344 C 34.679688 173.449219 34.519531 172.035156 34.164062 170.695312 C 33.316406 167.363281 34.214844 164.09375 36.636719 161.667969 L 39.027344 159.269531 C 41.453125 156.859375 44.714844 155.960938 48.03125 156.808594 C 49.375 157.136719 50.78125 157.324219 52.242188 157.324219 C 61.675781 157.324219 69.292969 149.6875 69.292969 140.285156 " fill-opacity="1" fill-rule="evenodd"/></g><g clip-path="url(#fe2a473733)"><path fill="#004b6b" d="M 52.085938 81.605469 C 58.03125 81.605469 62.832031 76.824219 62.832031 70.886719 C 62.828125 64.964844 58.007812 60.167969 52.085938 60.167969 C 46.164062 60.167969 41.367188 64.964844 41.367188 70.886719 C 41.367188 76.820312 46.15625 81.605469 52.085938 81.605469 " fill-opacity="1" fill-rule="evenodd"/></g><g clip-path="url(#04e3502174)"><g transform="matrix(1, 0, 0, 1, 94, 0)"><g clip-path="url(#1b3d004dbe)"><g fill="#004b6b" fill-opacity="1"><g transform="translate(0.722813, 226.99956)"><g><path d="M 6.871094 -59.722656 C 6.871094 -72.25 9.417969 -83.269531 14.515625 -92.789062 C 19.636719 -102.351562 26.683594 -109.773438 35.660156 -115.054688 C 44.625 -120.328125 54.664062 -122.964844 65.78125 -122.964844 C 75.421875 -122.964844 84.390625 -120.738281 92.683594 -116.289062 C 101.007812 -111.824219 107.378906 -105.9375 111.792969 -98.632812 L 109.710938 -97.375 L 107.273438 -97.375 L 107.273438 -162.5625 L 132.050781 -162.5625 L 132.050781 2.433594 L 107.273438 2.433594 L 107.273438 -22.289062 L 109.710938 -22.289062 L 111.839844 -21.113281 C 107.734375 -13.65625 101.667969 -7.546875 93.640625 -2.777344 C 85.613281 1.996094 76.253906 4.382812 65.566406 4.382812 C 54.582031 4.382812 44.605469 1.667969 35.632812 -3.757812 C 26.664062 -9.1875 19.621094 -16.789062 14.503906 -26.570312 C 9.414062 -36.300781 6.871094 -47.351562 6.871094 -59.722656 Z M 11.738281 -59.722656 C 11.738281 -48.148438 14.097656 -37.847656 18.820312 -28.824219 C 23.515625 -19.851562 29.957031 -12.882812 38.15625 -7.925781 C 46.351562 -2.964844 55.488281 -0.488281 65.566406 -0.488281 C 75.363281 -0.488281 83.890625 -2.644531 91.152344 -6.960938 C 98.421875 -11.28125 103.894531 -16.78125 107.578125 -23.460938 L 112.144531 -22.289062 L 112.144531 0 L 109.710938 0 L 109.710938 -2.433594 L 129.617188 -2.433594 L 129.617188 0 L 127.183594 0 L 127.183594 -160.128906 L 129.617188 -160.128906 L 129.617188 -157.691406 L 109.710938 -157.691406 L 109.710938 -160.128906 L 112.144531 -160.128906 L 112.144531 -88.636719 L 107.625 -96.117188 C 103.671875 -102.660156 97.925781 -107.953125 90.382812 -112 C 82.808594 -116.0625 74.605469 -118.09375 65.78125 -118.09375 C 55.550781 -118.09375 46.332031 -115.679688 38.128906 -110.855469 C 29.9375 -106.039062 23.496094 -99.25 18.808594 -90.492188 C 14.09375 -81.691406 11.738281 -71.433594 11.738281 -59.722656 Z M 107.273438 -59.507812 C 107.273438 -68.039062 105.570312 -75.441406 102.160156 -81.714844 C 98.773438 -87.949219 94.210938 -92.71875 88.476562 -96.023438 C 82.722656 -99.339844 76.382812 -101 69.460938 -101 C 62.535156 -101 56.230469 -99.375 50.542969 -96.125 C 44.886719 -92.894531 40.363281 -88.160156 36.976562 -81.929688 C 33.566406 -75.65625 31.863281 -68.253906 31.863281 -59.722656 C 31.863281 -51.042969 33.570312 -43.53125 36.984375 -37.179688 C 40.371094 -30.875 44.898438 -26.070312 50.5625 -22.769531 C 56.242188 -19.453125 62.542969 -17.796875 69.460938 -17.796875 C 76.382812 -17.796875 82.722656 -19.457031 88.476562 -22.773438 C 94.207031 -26.078125 98.765625 -30.878906 102.15625 -37.179688 C 105.566406 -43.53125 107.273438 -50.972656 107.273438 -59.507812 Z M 112.144531 -59.507812 C 112.144531 -50.152344 110.242188 -41.945312 106.445312 -34.875 C 102.617188 -27.761719 97.441406 -22.320312 90.910156 -18.554688 C 84.402344 -14.804688 77.253906 -12.929688 69.460938 -12.929688 C 61.664062 -12.929688 54.546875 -14.808594 48.109375 -18.5625 C 41.65625 -22.328125 36.515625 -27.765625 32.695312 -34.875 C 28.894531 -41.945312 26.996094 -50.226562 26.996094 -59.722656 C 26.996094 -69.078125 28.894531 -77.257812 32.699219 -84.253906 C 36.527344 -91.296875 41.667969 -96.664062 48.128906 -100.355469 C 54.5625 -104.03125 61.671875 -105.867188 69.460938 -105.867188 C 77.253906 -105.867188 84.402344 -103.992188 90.910156 -100.242188 C 97.4375 -96.476562 102.613281 -91.078125 106.4375 -84.039062 C 110.242188 -77.039062 112.144531 -68.863281 112.144531 -59.507812 Z M 112.144531 -59.507812 "/></g></g></g><g fill="#004b6b" fill-opacity="1"><g transform="translate(141.591529, 226.99956)"><g><path d="M 68.378906 4.382812 C 56.847656 4.382812 46.390625 1.753906 37.003906 -3.503906 C 27.582031 -8.777344 20.199219 -16.273438 14.855469 -25.984375 C 9.53125 -35.652344 6.871094 -46.828125 6.871094 -59.507812 C 6.871094 -72.050781 9.609375 -83.164062 15.085938 -92.839844 C 20.578125 -102.546875 28.070312 -110 37.5625 -115.199219 C 47.015625 -120.375 57.578125 -122.964844 69.246094 -122.964844 C 80.910156 -122.964844 91.472656 -120.375 100.925781 -115.199219 C 110.414062 -110 117.90625 -102.585938 123.402344 -92.953125 C 128.878906 -83.347656 131.617188 -72.199219 131.617188 -59.507812 C 131.617188 -46.808594 128.804688 -35.617188 123.175781 -25.933594 C 117.535156 -16.238281 109.902344 -8.757812 100.273438 -3.488281 C 90.675781 1.757812 80.046875 4.382812 68.378906 4.382812 Z M 68.378906 -0.488281 C 79.214844 -0.488281 89.070312 -2.910156 97.9375 -7.761719 C 106.773438 -12.59375 113.78125 -19.464844 118.964844 -28.378906 C 124.15625 -37.308594 126.75 -47.683594 126.75 -59.507812 C 126.75 -71.339844 124.222656 -81.683594 119.171875 -90.542969 C 114.132812 -99.375 107.269531 -106.171875 98.585938 -110.929688 C 89.863281 -115.707031 80.082031 -118.09375 69.246094 -118.09375 C 58.40625 -118.09375 48.625 -115.707031 39.902344 -110.929688 C 31.21875 -106.171875 24.359375 -99.34375 19.320312 -90.441406 C 14.265625 -81.507812 11.738281 -71.199219 11.738281 -59.507812 C 11.738281 -47.660156 14.199219 -37.269531 19.121094 -28.332031 C 24.015625 -19.433594 30.769531 -12.574219 39.382812 -7.75 C 48.027344 -2.90625 57.695312 -0.488281 68.378906 -0.488281 Z M 68.378906 -17.796875 C 75.039062 -17.796875 81.292969 -19.359375 87.136719 -22.488281 C 92.933594 -25.585938 97.625 -30.253906 101.214844 -36.488281 C 104.824219 -42.746094 106.625 -50.417969 106.625 -59.507812 C 106.625 -68.601562 104.855469 -76.28125 101.316406 -82.542969 C 97.796875 -88.769531 93.214844 -93.394531 87.570312 -96.417969 C 81.871094 -99.472656 75.6875 -101 69.027344 -101 C 62.226562 -101 56.011719 -99.472656 50.390625 -96.425781 C 44.824219 -93.410156 40.355469 -88.792969 36.976562 -82.578125 C 33.566406 -76.304688 31.863281 -68.617188 31.863281 -59.507812 C 31.863281 -50.246094 33.535156 -42.476562 36.878906 -36.199219 C 40.1875 -29.992188 44.585938 -25.378906 50.074219 -22.367188 C 55.625 -19.320312 61.726562 -17.796875 68.378906 -17.796875 Z M 68.378906 -12.929688 C 60.894531 -12.929688 54.011719 -14.652344 47.734375 -18.097656 C 41.394531 -21.578125 36.34375 -26.847656 32.582031 -33.910156 C 28.855469 -40.902344 26.996094 -49.4375 26.996094 -59.507812 C 26.996094 -69.441406 28.894531 -77.90625 32.699219 -84.90625 C 36.535156 -91.964844 41.660156 -97.230469 48.066406 -100.707031 C 54.417969 -104.148438 61.402344 -105.867188 69.027344 -105.867188 C 76.503906 -105.867188 83.449219 -104.148438 89.867188 -100.710938 C 96.34375 -97.242188 101.570312 -91.984375 105.554688 -84.941406 C 109.515625 -77.933594 111.496094 -69.453125 111.496094 -59.507812 C 111.496094 -49.550781 109.472656 -41.066406 105.433594 -34.054688 C 101.378906 -27.019531 96.046875 -21.730469 89.433594 -18.195312 C 82.871094 -14.683594 75.855469 -12.929688 68.378906 -12.929688 Z M 68.378906 -12.929688 "/></g></g></g><g fill="#004b6b" fill-opacity="1"><g transform="translate(274.670238, 226.99956)"><g><path d="M 43.117188 -102.351562 L 43.117188 -32.457031 C 43.117188 -27.375 44.09375 -23.882812 46.054688 -21.980469 C 48.035156 -20.058594 51.726562 -19.097656 57.125 -19.097656 L 74.058594 -19.097656 L 74.058594 2.433594 L 53.878906 2.433594 C 42.285156 2.433594 33.511719 -0.304688 27.5625 -5.78125 C 21.558594 -11.3125 18.554688 -20.207031 18.554688 -32.457031 L 18.554688 -102.351562 L 20.988281 -102.351562 L 20.988281 -99.917969 L 3.191406 -99.917969 L 3.191406 -121.015625 L 20.988281 -121.015625 L 20.988281 -118.582031 L 18.554688 -118.582031 L 18.554688 -150.878906 L 43.117188 -150.878906 L 43.117188 -118.582031 L 40.679688 -118.582031 L 40.679688 -121.015625 L 74.058594 -121.015625 L 74.058594 -99.917969 L 40.679688 -99.917969 L 40.679688 -102.351562 Z M 38.246094 -104.785156 L 71.625 -104.785156 L 71.625 -102.351562 L 69.191406 -102.351562 L 69.191406 -118.582031 L 71.625 -118.582031 L 71.625 -116.148438 L 38.246094 -116.148438 L 38.246094 -148.441406 L 40.679688 -148.441406 L 40.679688 -146.007812 L 20.988281 -146.007812 L 20.988281 -148.441406 L 23.425781 -148.441406 L 23.425781 -116.148438 L 5.625 -116.148438 L 5.625 -118.582031 L 8.058594 -118.582031 L 8.058594 -102.351562 L 5.625 -102.351562 L 5.625 -104.785156 L 23.425781 -104.785156 L 23.425781 -32.457031 C 23.425781 -21.628906 25.902344 -13.929688 30.863281 -9.363281 C 35.878906 -4.746094 43.550781 -2.433594 53.878906 -2.433594 L 71.625 -2.433594 L 71.625 0 L 69.191406 0 L 69.191406 -16.660156 L 71.625 -16.660156 L 71.625 -14.226562 L 57.125 -14.226562 C 50.410156 -14.226562 45.589844 -15.648438 42.664062 -18.484375 C 39.71875 -21.34375 38.246094 -26 38.246094 -32.457031 Z M 38.246094 -104.785156 "/></g></g></g><g fill="#004b6b" fill-opacity="1"><g transform="translate(348.025762, 226.99956)"><g><path d="M 43.117188 -102.351562 L 43.117188 -32.457031 C 43.117188 -27.375 44.09375 -23.882812 46.054688 -21.980469 C 48.035156 -20.058594 51.726562 -19.097656 57.125 -19.097656 L 74.058594 -19.097656 L 74.058594 2.433594 L 53.878906 2.433594 C 42.285156 2.433594 33.511719 -0.304688 27.5625 -5.78125 C 21.558594 -11.3125 18.554688 -20.207031 18.554688 -32.457031 L 18.554688 -102.351562 L 20.988281 -102.351562 L 20.988281 -99.917969 L 3.191406 -99.917969 L 3.191406 -121.015625 L 20.988281 -121.015625 L 20.988281 -118.582031 L 18.554688 -118.582031 L 18.554688 -150.878906 L 43.117188 -150.878906 L 43.117188 -118.582031 L 40.679688 -118.582031 L 40.679688 -121.015625 L 74.058594 -121.015625 L 74.058594 -99.917969 L 40.679688 -99.917969 L 40.679688 -102.351562 Z M 38.246094 -104.785156 L 71.625 -104.785156 L 71.625 -102.351562 L 69.191406 -102.351562 L 69.191406 -118.582031 L 71.625 -118.582031 L 71.625 -116.148438 L 38.246094 -116.148438 L 38.246094 -148.441406 L 40.679688 -148.441406 L 40.679688 -146.007812 L 20.988281 -146.007812 L 20.988281 -148.441406 L 23.425781 -148.441406 L 23.425781 -116.148438 L 5.625 -116.148438 L 5.625 -118.582031 L 8.058594 -118.582031 L 8.058594 -102.351562 L 5.625 -102.351562 L 5.625 -104.785156 L 23.425781 -104.785156 L 23.425781 -32.457031 C 23.425781 -21.628906 25.902344 -13.929688 30.863281 -9.363281 C 35.878906 -4.746094 43.550781 -2.433594 53.878906 -2.433594 L 71.625 -2.433594 L 71.625 0 L 69.191406 0 L 69.191406 -16.660156 L 71.625 -16.660156 L 71.625 -14.226562 L 57.125 -14.226562 C 50.410156 -14.226562 45.589844 -15.648438 42.664062 -18.484375 C 39.71875 -21.34375 38.246094 -26 38.246094 -32.457031 Z M 38.246094 -104.785156 "/></g></g></g><g fill="#004b6b" fill-opacity="1"><g transform="translate(421.38131, 226.99956)"><g><path d="M 26.832031 -135.40625 C 22.410156 -135.40625 18.660156 -136.941406 15.589844 -140.011719 C 12.519531 -143.085938 10.980469 -146.832031 10.980469 -151.253906 C 10.980469 -155.679688 12.519531 -159.425781 15.589844 -162.5 C 18.660156 -165.570312 22.410156 -167.105469 26.832031 -167.105469 C 31.125 -167.105469 34.773438 -165.5625 37.773438 -162.472656 C 40.757812 -159.40625 42.25 -155.664062 42.25 -151.253906 C 42.25 -146.847656 40.757812 -143.105469 37.773438 -140.039062 C 34.773438 -136.949219 31.125 -135.40625 26.832031 -135.40625 Z M 26.832031 -140.273438 C 29.753906 -140.273438 32.238281 -141.328125 34.285156 -143.429688 C 36.347656 -145.554688 37.382812 -148.164062 37.382812 -151.253906 C 37.382812 -154.347656 36.347656 -156.957031 34.285156 -159.078125 C 32.238281 -161.183594 29.753906 -162.238281 26.832031 -162.238281 C 23.753906 -162.238281 21.152344 -161.175781 19.03125 -159.054688 C 16.910156 -156.933594 15.851562 -154.335938 15.851562 -151.253906 C 15.851562 -148.175781 16.910156 -145.578125 19.03125 -143.457031 C 21.152344 -141.335938 23.753906 -140.273438 26.832031 -140.273438 Z M 38.789062 -118.582031 L 38.789062 2.433594 L 14.226562 2.433594 L 14.226562 -121.015625 L 38.789062 -121.015625 Z M 33.917969 -118.582031 L 36.351562 -118.582031 L 36.351562 -116.148438 L 16.660156 -116.148438 L 16.660156 -118.582031 L 19.097656 -118.582031 L 19.097656 0 L 16.660156 0 L 16.660156 -2.433594 L 36.351562 -2.433594 L 36.351562 0 L 33.917969 0 Z M 33.917969 -118.582031 "/></g></g></g><g fill="#004b6b" fill-opacity="1"><g transform="translate(469.203057, 226.99956)"><g><path d="M 34.183594 -100.429688 C 37.863281 -107.632812 43.117188 -113.230469 49.949219 -117.21875 C 56.746094 -121.191406 64.980469 -123.179688 74.652344 -123.179688 L 77.089844 -123.179688 L 77.089844 -97.96875 L 69.460938 -97.96875 C 59.136719 -97.96875 51.457031 -95.238281 46.421875 -89.773438 C 41.332031 -84.253906 38.789062 -75.824219 38.789062 -64.484375 L 38.789062 2.433594 L 14.226562 2.433594 L 14.226562 -121.015625 L 38.789062 -121.015625 L 38.789062 -99.324219 L 36.351562 -99.324219 Z M 38.519531 -98.214844 L 33.917969 -99.324219 L 33.917969 -118.582031 L 36.351562 -118.582031 L 36.351562 -116.148438 L 16.660156 -116.148438 L 16.660156 -118.582031 L 19.097656 -118.582031 L 19.097656 0 L 16.660156 0 L 16.660156 -2.433594 L 36.351562 -2.433594 L 36.351562 0 L 33.917969 0 L 33.917969 -64.484375 C 33.917969 -77.089844 36.894531 -86.621094 42.839844 -93.074219 C 48.839844 -99.582031 57.714844 -102.839844 69.460938 -102.839844 L 74.652344 -102.839844 L 74.652344 -100.40625 L 72.21875 -100.40625 L 72.21875 -120.746094 L 74.652344 -120.746094 L 74.652344 -118.308594 C 65.859375 -118.308594 58.445312 -116.546875 52.402344 -113.015625 C 46.394531 -109.507812 41.765625 -104.570312 38.519531 -98.214844 Z M 38.519531 -98.214844 "/></g></g></g><g fill="#004b6b" fill-opacity="1"><g transform="translate(0.722813, 226.99956)"><g><path d="M 9.3125 -59.71875 C 9.3125 -71.84375 11.757812 -82.484375 16.65625 -91.640625 C 21.5625 -100.796875 28.304688 -107.898438 36.890625 -112.953125 C 45.472656 -118.003906 55.101562 -120.53125 65.78125 -120.53125 C 75.007812 -120.53125 83.59375 -118.398438 91.53125 -114.140625 C 99.46875 -109.890625 105.523438 -104.300781 109.703125 -97.375 L 109.703125 -160.125 L 129.625 -160.125 L 129.625 0 L 109.703125 0 L 109.703125 -22.28125 C 105.816406 -15.21875 100.050781 -9.410156 92.40625 -4.859375 C 84.757812 -0.316406 75.8125 1.953125 65.5625 1.953125 C 55.03125 1.953125 45.472656 -0.640625 36.890625 -5.828125 C 28.304688 -11.023438 21.5625 -18.3125 16.65625 -27.6875 C 11.757812 -37.070312 9.3125 -47.75 9.3125 -59.71875 Z M 109.703125 -59.5 C 109.703125 -68.445312 107.898438 -76.238281 104.296875 -82.875 C 100.691406 -89.507812 95.820312 -94.59375 89.6875 -98.125 C 83.5625 -101.664062 76.820312 -103.4375 69.46875 -103.4375 C 62.101562 -103.4375 55.390625 -101.703125 49.328125 -98.234375 C 43.273438 -94.773438 38.441406 -89.726562 34.828125 -83.09375 C 31.222656 -76.457031 29.421875 -68.664062 29.421875 -59.71875 C 29.421875 -50.632812 31.222656 -42.738281 34.828125 -36.03125 C 38.441406 -29.320312 43.273438 -24.195312 49.328125 -20.65625 C 55.390625 -17.125 62.101562 -15.359375 69.46875 -15.359375 C 76.820312 -15.359375 83.5625 -17.125 89.6875 -20.65625 C 95.820312 -24.195312 100.691406 -29.320312 104.296875 -36.03125 C 107.898438 -42.738281 109.703125 -50.5625 109.703125 -59.5 Z M 109.703125 -59.5 "/></g></g></g><g fill="#004b6b" fill-opacity="1"><g transform="translate(141.591529, 226.99956)"><g><path d="M 68.375 1.953125 C 57.269531 1.953125 47.207031 -0.570312 38.1875 -5.625 C 29.175781 -10.675781 22.109375 -17.851562 16.984375 -27.15625 C 11.867188 -36.457031 9.3125 -47.238281 9.3125 -59.5 C 9.3125 -71.625 11.941406 -82.335938 17.203125 -91.640625 C 22.460938 -100.941406 29.632812 -108.082031 38.71875 -113.0625 C 47.8125 -118.039062 57.988281 -120.53125 69.25 -120.53125 C 80.5 -120.53125 90.664062 -118.039062 99.75 -113.0625 C 108.84375 -108.082031 116.019531 -100.976562 121.28125 -91.75 C 126.550781 -82.519531 129.1875 -71.769531 129.1875 -59.5 C 129.1875 -47.238281 126.476562 -36.457031 121.0625 -27.15625 C 115.65625 -17.851562 108.335938 -10.675781 99.109375 -5.625 C 89.878906 -0.570312 79.632812 1.953125 68.375 1.953125 Z M 68.375 -15.359375 C 75.445312 -15.359375 82.082031 -17.015625 88.28125 -20.328125 C 94.488281 -23.648438 99.503906 -28.628906 103.328125 -35.265625 C 107.148438 -41.898438 109.0625 -49.976562 109.0625 -59.5 C 109.0625 -69.03125 107.1875 -77.113281 103.4375 -83.75 C 99.6875 -90.382812 94.78125 -95.320312 88.71875 -98.5625 C 82.65625 -101.8125 76.09375 -103.4375 69.03125 -103.4375 C 61.8125 -103.4375 55.207031 -101.8125 49.21875 -98.5625 C 43.238281 -95.320312 38.441406 -90.382812 34.828125 -83.75 C 31.222656 -77.113281 29.421875 -69.03125 29.421875 -59.5 C 29.421875 -49.84375 31.1875 -41.691406 34.71875 -35.046875 C 38.257812 -28.410156 42.988281 -23.46875 48.90625 -20.21875 C 54.820312 -16.976562 61.3125 -15.359375 68.375 -15.359375 Z M 68.375 -15.359375 "/></g></g></g><g fill="#004b6b" fill-opacity="1"><g transform="translate(274.670238, 226.99956)"><g><path d="M 40.6875 -102.359375 L 40.6875 -32.453125 C 40.6875 -26.679688 41.910156 -22.601562 44.359375 -20.21875 C 46.804688 -17.84375 51.0625 -16.65625 57.125 -16.65625 L 71.625 -16.65625 L 71.625 0 L 53.875 0 C 42.914062 0 34.691406 -2.519531 29.203125 -7.5625 C 23.722656 -12.613281 20.984375 -20.910156 20.984375 -32.453125 L 20.984375 -102.359375 L 5.625 -102.359375 L 5.625 -118.578125 L 20.984375 -118.578125 L 20.984375 -148.4375 L 40.6875 -148.4375 L 40.6875 -118.578125 L 71.625 -118.578125 L 71.625 -102.359375 Z M 40.6875 -102.359375 "/></g></g></g><g fill="#004b6b" fill-opacity="1"><g transform="translate(348.025762, 226.99956)"><g><path d="M 40.6875 -102.359375 L 40.6875 -32.453125 C 40.6875 -26.679688 41.910156 -22.601562 44.359375 -20.21875 C 46.804688 -17.84375 51.0625 -16.65625 57.125 -16.65625 L 71.625 -16.65625 L 71.625 0 L 53.875 0 C 42.914062 0 34.691406 -2.519531 29.203125 -7.5625 C 23.722656 -12.613281 20.984375 -20.910156 20.984375 -32.453125 L 20.984375 -102.359375 L 5.625 -102.359375 L 5.625 -118.578125 L 20.984375 -118.578125 L 20.984375 -148.4375 L 40.6875 -148.4375 L 40.6875 -118.578125 L 71.625 -118.578125 L 71.625 -102.359375 Z M 40.6875 -102.359375 "/></g></g></g><g fill="#004b6b" fill-opacity="1"><g transform="translate(421.38131, 226.99956)"><g><path d="M 26.828125 -137.84375 C 23.078125 -137.84375 19.90625 -139.140625 17.3125 -141.734375 C 14.71875 -144.328125 13.421875 -147.5 13.421875 -151.25 C 13.421875 -155.007812 14.71875 -158.1875 17.3125 -160.78125 C 19.90625 -163.375 23.078125 -164.671875 26.828125 -164.671875 C 30.441406 -164.671875 33.507812 -163.375 36.03125 -160.78125 C 38.550781 -158.1875 39.8125 -155.007812 39.8125 -151.25 C 39.8125 -147.5 38.550781 -144.328125 36.03125 -141.734375 C 33.507812 -139.140625 30.441406 -137.84375 26.828125 -137.84375 Z M 36.359375 -118.578125 L 36.359375 0 L 16.65625 0 L 16.65625 -118.578125 Z M 36.359375 -118.578125 "/></g></g></g><g fill="#004b6b" fill-opacity="1"><g transform="translate(469.203057, 226.99956)"><g><path d="M 36.359375 -99.328125 C 39.816406 -106.109375 44.753906 -111.375 51.171875 -115.125 C 57.597656 -118.875 65.425781 -120.75 74.65625 -120.75 L 74.65625 -100.40625 L 69.46875 -100.40625 C 47.394531 -100.40625 36.359375 -88.429688 36.359375 -64.484375 L 36.359375 0 L 16.65625 0 L 16.65625 -118.578125 L 36.359375 -118.578125 Z M 36.359375 -99.328125 "/></g></g></g></g></g></g></g></g></svg>