<svg xmlns="http://www.w3.org/2000/svg" xmlns:xlink="http://www.w3.org/1999/xlink" width="2000" zoomAndPan="magnify" viewBox="0 0 1500 1499.999933" height="2000" preserveAspectRatio="xMidYMid meet" version="1.0"><defs><g/><clipPath id="a43153bfc5"><path d="M 0.441406 157 L 122.804688 157 L 122.804688 404 L 0.441406 404 Z M 0.441406 157 " clip-rule="nonzero"/></clipPath><clipPath id="42a62d70dc"><path d="M 73 107.40625 L 112 107.40625 L 112 146 L 73 146 Z M 73 107.40625 " clip-rule="nonzero"/></clipPath><clipPath id="ea83c0fef9"><path d="M 168 0.601562 L 1144.039062 0.601562 L 1144.039062 539.160156 L 168 539.160156 Z M 168 0.601562 " clip-rule="nonzero"/></clipPath><clipPath id="6c3ee49256"><rect x="0" width="977" y="0" height="540"/></clipPath><clipPath id="54d27828af"><rect x="0" width="1145" y="0" height="540"/></clipPath></defs><g transform="matrix(1, 0, 0, 1, 151, 417)"><g clip-path="url(#54d27828af)"><g clip-path="url(#a43153bfc5)"><path fill="#004b6b" d="M 123.078125 249.941406 C 123.078125 233.21875 109.484375 219.640625 92.777344 219.640625 C 90.183594 219.640625 87.679688 219.929688 85.289062 220.5625 C 79.394531 222.066406 73.59375 220.46875 69.285156 216.164062 L 64.714844 211.609375 C 60.40625 207.28125 58.835938 201.464844 60.339844 195.5625 C 60.925781 193.179688 61.261719 190.667969 61.261719 188.085938 C 61.261719 171.363281 47.703125 157.832031 30.960938 157.785156 C 14.21875 157.785156 0.660156 171.363281 0.660156 188.085938 C 0.660156 204.847656 14.257812 218.386719 30.960938 218.386719 C 33.5625 218.386719 36.054688 218.097656 38.453125 217.464844 C 44.378906 215.960938 50.167969 217.558594 54.480469 221.859375 L 59.035156 226.394531 C 63.34375 230.753906 64.941406 236.558594 63.429688 242.464844 C 62.824219 244.847656 62.507812 247.335938 62.507812 249.941406 C 62.507812 252.523438 62.796875 255.035156 63.429688 257.414062 C 64.933594 263.363281 63.339844 269.15625 59.035156 273.460938 L 54.789062 277.722656 C 50.476562 282.035156 44.664062 283.628906 38.765625 282.121094 C 36.386719 281.515625 33.875 281.199219 31.289062 281.199219 C 14.519531 281.199219 0.988281 294.777344 0.988281 311.5 C 0.988281 328.195312 14.519531 341.773438 31.289062 341.773438 C 33.875 341.773438 36.386719 341.484375 38.765625 340.878906 C 44.671875 339.347656 50.476562 340.945312 54.789062 345.253906 L 59.324219 349.808594 C 63.632812 354.167969 65.230469 359.953125 63.71875 365.859375 C 63.132812 368.238281 62.796875 370.75 62.796875 373.335938 C 62.796875 390.058594 76.375 403.636719 93.085938 403.636719 C 109.839844 403.636719 123.394531 390.058594 123.394531 373.335938 C 123.394531 356.613281 109.800781 343.035156 93.085938 343.035156 C 90.5 343.035156 87.992188 343.324219 85.609375 343.957031 C 79.671875 345.414062 73.871094 343.84375 69.566406 339.53125 L 65.019531 334.976562 C 60.707031 330.667969 59.113281 324.855469 60.621094 318.972656 C 61.207031 316.59375 61.546875 314.082031 61.546875 311.480469 C 61.546875 308.894531 61.253906 306.382812 60.621094 304.003906 C 59.121094 298.078125 60.714844 292.265625 65.019531 287.953125 L 69.269531 283.691406 C 73.582031 279.40625 79.382812 277.808594 85.273438 279.3125 C 87.667969 279.898438 90.164062 280.234375 92.761719 280.234375 C 109.53125 280.234375 123.078125 266.65625 123.078125 249.941406 " fill-opacity="1" fill-rule="evenodd"/></g><g clip-path="url(#42a62d70dc)"><path fill="#004b6b" d="M 92.484375 145.625 C 103.058594 145.625 111.589844 137.121094 111.589844 126.566406 C 111.582031 116.039062 103.011719 107.511719 92.484375 107.511719 C 81.960938 107.511719 73.429688 116.039062 73.429688 126.566406 C 73.429688 137.113281 81.945312 145.625 92.484375 145.625 " fill-opacity="1" fill-rule="evenodd"/></g><g clip-path="url(#ea83c0fef9)"><g transform="matrix(1, 0, 0, 1, 168, 0.000000000000113687)"><g clip-path="url(#6c3ee49256)"><g fill="#004b6b" fill-opacity="1"><g transform="translate(0.284996, 404.099761)"><g><path d="M 12.214844 -106.175781 C 12.214844 -128.441406 16.746094 -148.035156 25.804688 -164.960938 C 34.90625 -181.957031 47.4375 -195.152344 63.394531 -204.539062 C 79.332031 -213.914062 97.183594 -218.601562 116.945312 -218.601562 C 134.085938 -218.601562 150.027344 -214.648438 164.769531 -206.738281 C 179.570312 -198.800781 190.894531 -188.335938 198.742188 -175.347656 L 195.039062 -173.109375 L 190.710938 -173.109375 L 190.710938 -289 L 234.757812 -289 L 234.757812 4.328125 L 190.710938 4.328125 L 190.710938 -39.625 L 195.039062 -39.625 L 198.828125 -37.535156 C 191.527344 -24.28125 180.742188 -13.414062 166.472656 -4.933594 C 152.199219 3.546875 135.5625 7.789062 116.5625 7.789062 C 97.035156 7.789062 79.296875 2.964844 63.347656 -6.683594 C 47.402344 -16.332031 34.878906 -29.851562 25.785156 -47.234375 C 16.738281 -64.53125 12.214844 -84.179688 12.214844 -106.175781 Z M 20.871094 -106.175781 C 20.871094 -85.597656 25.066406 -67.289062 33.457031 -51.246094 C 41.800781 -35.289062 53.261719 -22.90625 67.832031 -14.089844 C 82.402344 -5.273438 98.644531 -0.867188 116.5625 -0.867188 C 133.976562 -0.867188 149.140625 -4.703125 162.050781 -12.375 C 174.96875 -20.054688 184.703125 -29.832031 191.246094 -41.710938 L 199.367188 -39.625 L 199.367188 0 L 195.039062 0 L 195.039062 -4.328125 L 230.429688 -4.328125 L 230.429688 0 L 226.101562 0 L 226.101562 -284.671875 L 230.429688 -284.671875 L 230.429688 -280.34375 L 195.039062 -280.34375 L 195.039062 -284.671875 L 199.367188 -284.671875 L 199.367188 -157.578125 L 191.335938 -170.871094 C 184.304688 -182.507812 174.085938 -191.917969 160.679688 -199.109375 C 147.210938 -206.332031 132.632812 -209.945312 116.945312 -209.945312 C 98.753906 -209.945312 82.367188 -205.65625 67.785156 -197.078125 C 53.222656 -188.511719 41.773438 -176.445312 33.4375 -160.875 C 25.058594 -145.226562 20.871094 -126.992188 20.871094 -106.175781 Z M 190.710938 -105.789062 C 190.710938 -120.957031 187.679688 -134.117188 181.617188 -145.269531 C 175.597656 -156.351562 167.488281 -164.832031 157.292969 -170.707031 C 147.0625 -176.605469 135.792969 -179.554688 123.484375 -179.554688 C 111.171875 -179.554688 99.960938 -176.667969 89.855469 -170.890625 C 79.796875 -165.144531 71.757812 -156.730469 65.738281 -145.65625 C 59.675781 -134.5 56.644531 -121.34375 56.644531 -106.175781 C 56.644531 -90.742188 59.679688 -77.386719 65.746094 -66.101562 C 71.773438 -54.890625 79.820312 -46.351562 89.890625 -40.476562 C 99.988281 -34.585938 111.1875 -31.640625 123.484375 -31.640625 C 135.792969 -31.640625 147.0625 -34.589844 157.292969 -40.488281 C 167.480469 -46.359375 175.585938 -54.898438 181.609375 -66.101562 C 187.675781 -77.386719 190.710938 -90.617188 190.710938 -105.789062 Z M 199.367188 -105.789062 C 199.367188 -89.164062 195.988281 -74.566406 189.234375 -62 C 182.433594 -49.351562 173.226562 -39.683594 161.617188 -32.988281 C 150.046875 -26.320312 137.335938 -22.984375 123.484375 -22.984375 C 109.625 -22.984375 96.972656 -26.324219 85.527344 -33 C 74.054688 -39.691406 64.921875 -49.359375 58.125 -62 C 51.367188 -74.566406 47.988281 -89.292969 47.988281 -106.175781 C 47.988281 -122.808594 51.371094 -137.347656 58.132812 -149.789062 C 64.9375 -162.304688 74.078125 -171.84375 85.5625 -178.40625 C 97 -184.941406 109.640625 -188.210938 123.484375 -188.210938 C 137.335938 -188.210938 150.046875 -184.875 161.617188 -178.207031 C 173.222656 -171.515625 182.421875 -161.914062 189.222656 -149.402344 C 195.984375 -136.960938 199.367188 -122.425781 199.367188 -105.789062 Z M 199.367188 -105.789062 "/></g></g></g><g fill="#004b6b" fill-opacity="1"><g transform="translate(250.718244, 404.099761)"><g><path d="M 121.5625 7.789062 C 101.0625 7.789062 82.46875 3.117188 65.785156 -6.226562 C 49.035156 -15.605469 35.910156 -28.925781 26.40625 -46.191406 C 16.945312 -63.382812 12.214844 -83.25 12.214844 -105.789062 C 12.214844 -128.09375 17.082031 -147.84375 26.816406 -165.046875 C 36.582031 -182.304688 49.902344 -195.554688 66.78125 -204.796875 C 83.585938 -214 102.359375 -218.601562 123.101562 -218.601562 C 143.84375 -218.601562 162.617188 -214 179.421875 -204.796875 C 196.292969 -195.558594 209.613281 -182.375 219.378906 -165.253906 C 229.117188 -148.175781 233.988281 -128.355469 233.988281 -105.789062 C 233.988281 -83.214844 228.984375 -63.316406 218.976562 -46.101562 C 208.953125 -28.867188 195.382812 -15.566406 178.265625 -6.203125 C 161.203125 3.125 142.304688 7.789062 121.5625 7.789062 Z M 121.5625 -0.867188 C 140.828125 -0.867188 158.34375 -5.175781 174.113281 -13.800781 C 189.820312 -22.390625 202.28125 -34.609375 211.492188 -50.453125 C 220.71875 -66.324219 225.332031 -84.769531 225.332031 -105.789062 C 225.332031 -126.824219 220.839844 -145.214844 211.859375 -160.964844 C 202.902344 -176.667969 190.703125 -188.75 175.265625 -197.203125 C 159.753906 -205.699219 142.367188 -209.945312 123.101562 -209.945312 C 103.835938 -209.945312 86.449219 -205.699219 70.9375 -197.203125 C 55.503906 -188.75 43.304688 -176.613281 34.347656 -160.785156 C 25.363281 -144.90625 20.871094 -126.574219 20.871094 -105.789062 C 20.871094 -84.730469 25.242188 -66.257812 33.988281 -50.367188 C 42.695312 -34.546875 54.703125 -22.351562 70.011719 -13.777344 C 85.382812 -5.167969 102.566406 -0.867188 121.5625 -0.867188 Z M 121.5625 -31.640625 C 133.40625 -31.640625 144.523438 -34.417969 154.914062 -39.976562 C 165.214844 -45.488281 173.554688 -53.78125 179.941406 -64.863281 C 186.351562 -75.992188 189.554688 -89.636719 189.554688 -105.789062 C 189.554688 -121.957031 186.410156 -135.609375 180.113281 -146.746094 C 173.859375 -157.816406 165.714844 -166.035156 155.679688 -171.410156 C 145.546875 -176.839844 134.558594 -179.554688 122.714844 -179.554688 C 110.625 -179.554688 99.578125 -176.84375 89.578125 -171.421875 C 79.6875 -166.058594 71.742188 -157.855469 65.738281 -146.808594 C 59.675781 -135.65625 56.644531 -121.984375 56.644531 -105.789062 C 56.644531 -89.328125 59.617188 -75.515625 65.5625 -64.355469 C 71.441406 -53.316406 79.261719 -45.121094 89.023438 -39.761719 C 98.890625 -34.347656 109.734375 -31.640625 121.5625 -31.640625 Z M 121.5625 -22.984375 C 108.257812 -22.984375 96.019531 -26.046875 84.859375 -32.175781 C 73.589844 -38.359375 64.609375 -47.730469 57.921875 -60.285156 C 51.300781 -72.71875 47.988281 -87.886719 47.988281 -105.789062 C 47.988281 -123.449219 51.371094 -138.5 58.132812 -150.941406 C 64.953125 -163.492188 74.058594 -172.851562 85.453125 -179.03125 C 96.742188 -185.152344 109.160156 -188.210938 122.714844 -188.210938 C 136.007812 -188.210938 148.355469 -185.152344 159.765625 -179.042969 C 171.277344 -172.875 180.570312 -163.53125 187.648438 -151.003906 C 194.691406 -138.546875 198.210938 -123.476562 198.210938 -105.789062 C 198.210938 -88.09375 194.621094 -73.011719 187.441406 -60.542969 C 180.230469 -48.03125 170.75 -38.632812 158.996094 -32.34375 C 147.328125 -26.105469 134.851562 -22.984375 121.5625 -22.984375 Z M 121.5625 -22.984375 "/></g></g></g><g fill="#004b6b" fill-opacity="1"><g transform="translate(487.302593, 404.099761)"><g><path d="M 76.648438 -181.957031 L 76.648438 -57.703125 C 76.648438 -48.664062 78.390625 -42.457031 81.875 -39.074219 C 85.394531 -35.65625 91.957031 -33.949219 101.558594 -33.949219 L 131.660156 -33.949219 L 131.660156 4.328125 L 95.789062 4.328125 C 75.171875 4.328125 59.574219 -0.542969 49 -10.28125 C 38.324219 -20.113281 32.988281 -35.921875 32.988281 -57.703125 L 32.988281 -181.957031 L 37.316406 -181.957031 L 37.316406 -177.632812 L 5.675781 -177.632812 L 5.675781 -215.136719 L 37.316406 -215.136719 L 37.316406 -210.8125 L 32.988281 -210.8125 L 32.988281 -268.226562 L 76.648438 -268.226562 L 76.648438 -210.8125 L 72.320312 -210.8125 L 72.320312 -215.136719 L 131.660156 -215.136719 L 131.660156 -177.632812 L 72.320312 -177.632812 L 72.320312 -181.957031 Z M 67.992188 -186.285156 L 127.332031 -186.285156 L 127.332031 -181.957031 L 123.003906 -181.957031 L 123.003906 -210.8125 L 127.332031 -210.8125 L 127.332031 -206.484375 L 67.992188 -206.484375 L 67.992188 -263.898438 L 72.320312 -263.898438 L 72.320312 -259.570312 L 37.316406 -259.570312 L 37.316406 -263.898438 L 41.644531 -263.898438 L 41.644531 -206.484375 L 10.003906 -206.484375 L 10.003906 -210.8125 L 14.328125 -210.8125 L 14.328125 -181.957031 L 10.003906 -181.957031 L 10.003906 -186.285156 L 41.644531 -186.285156 L 41.644531 -57.703125 C 41.644531 -38.453125 46.050781 -24.765625 54.867188 -16.648438 C 63.78125 -8.433594 77.421875 -4.328125 95.789062 -4.328125 L 127.332031 -4.328125 L 127.332031 0 L 123.003906 0 L 123.003906 -29.621094 L 127.332031 -29.621094 L 127.332031 -25.292969 L 101.558594 -25.292969 C 89.617188 -25.292969 81.046875 -27.816406 75.847656 -32.863281 C 70.613281 -37.945312 67.992188 -46.226562 67.992188 -57.703125 Z M 67.992188 -186.285156 "/></g></g></g><g fill="#004b6b" fill-opacity="1"><g transform="translate(617.712399, 404.099761)"><g><path d="M 76.648438 -181.957031 L 76.648438 -57.703125 C 76.648438 -48.664062 78.390625 -42.457031 81.875 -39.074219 C 85.394531 -35.65625 91.957031 -33.949219 101.558594 -33.949219 L 131.660156 -33.949219 L 131.660156 4.328125 L 95.789062 4.328125 C 75.171875 4.328125 59.574219 -0.542969 49 -10.28125 C 38.324219 -20.113281 32.988281 -35.921875 32.988281 -57.703125 L 32.988281 -181.957031 L 37.316406 -181.957031 L 37.316406 -177.632812 L 5.675781 -177.632812 L 5.675781 -215.136719 L 37.316406 -215.136719 L 37.316406 -210.8125 L 32.988281 -210.8125 L 32.988281 -268.226562 L 76.648438 -268.226562 L 76.648438 -210.8125 L 72.320312 -210.8125 L 72.320312 -215.136719 L 131.660156 -215.136719 L 131.660156 -177.632812 L 72.320312 -177.632812 L 72.320312 -181.957031 Z M 67.992188 -186.285156 L 127.332031 -186.285156 L 127.332031 -181.957031 L 123.003906 -181.957031 L 123.003906 -210.8125 L 127.332031 -210.8125 L 127.332031 -206.484375 L 67.992188 -206.484375 L 67.992188 -263.898438 L 72.320312 -263.898438 L 72.320312 -259.570312 L 37.316406 -259.570312 L 37.316406 -263.898438 L 41.644531 -263.898438 L 41.644531 -206.484375 L 10.003906 -206.484375 L 10.003906 -210.8125 L 14.328125 -210.8125 L 14.328125 -181.957031 L 10.003906 -181.957031 L 10.003906 -186.285156 L 41.644531 -186.285156 L 41.644531 -57.703125 C 41.644531 -38.453125 46.050781 -24.765625 54.867188 -16.648438 C 63.78125 -8.433594 77.421875 -4.328125 95.789062 -4.328125 L 127.332031 -4.328125 L 127.332031 0 L 123.003906 0 L 123.003906 -29.621094 L 127.332031 -29.621094 L 127.332031 -25.292969 L 101.558594 -25.292969 C 89.617188 -25.292969 81.046875 -27.816406 75.847656 -32.863281 C 70.613281 -37.945312 67.992188 -46.226562 67.992188 -57.703125 Z M 67.992188 -186.285156 "/></g></g></g><g fill="#004b6b" fill-opacity="1"><g transform="translate(748.122249, 404.099761)"><g><path d="M 47.703125 -240.71875 C 39.839844 -240.71875 33.175781 -243.449219 27.714844 -248.914062 C 22.253906 -254.375 19.523438 -261.035156 19.523438 -268.898438 C 19.523438 -276.761719 22.253906 -283.425781 27.714844 -288.886719 C 33.175781 -294.347656 39.839844 -297.078125 47.703125 -297.078125 C 55.332031 -297.078125 61.816406 -294.332031 67.152344 -288.84375 C 72.457031 -283.386719 75.109375 -276.738281 75.109375 -268.898438 C 75.109375 -261.058594 72.457031 -254.410156 67.152344 -248.957031 C 61.816406 -243.464844 55.332031 -240.71875 47.703125 -240.71875 Z M 47.703125 -249.375 C 52.894531 -249.375 57.308594 -251.246094 60.949219 -254.988281 C 64.621094 -258.765625 66.457031 -263.402344 66.457031 -268.898438 C 66.457031 -274.394531 64.621094 -279.03125 60.949219 -282.808594 C 57.308594 -286.550781 52.894531 -288.421875 47.703125 -288.421875 C 42.230469 -288.421875 37.605469 -286.535156 33.835938 -282.765625 C 30.0625 -278.992188 28.179688 -274.371094 28.179688 -268.898438 C 28.179688 -263.425781 30.0625 -258.804688 33.835938 -255.03125 C 37.605469 -251.261719 42.230469 -249.375 47.703125 -249.375 Z M 68.957031 -210.8125 L 68.957031 4.328125 L 25.292969 4.328125 L 25.292969 -215.136719 L 68.957031 -215.136719 Z M 60.300781 -210.8125 L 64.628906 -210.8125 L 64.628906 -206.484375 L 29.621094 -206.484375 L 29.621094 -210.8125 L 33.949219 -210.8125 L 33.949219 0 L 29.621094 0 L 29.621094 -4.328125 L 64.628906 -4.328125 L 64.628906 0 L 60.300781 0 Z M 60.300781 -210.8125 "/></g></g></g><g fill="#004b6b" fill-opacity="1"><g transform="translate(833.13868, 404.099761)"><g><path d="M 60.773438 -178.542969 C 67.3125 -191.347656 76.652344 -201.296875 88.796875 -208.390625 C 100.882812 -215.453125 115.523438 -218.984375 132.71875 -218.984375 L 137.046875 -218.984375 L 137.046875 -174.167969 L 123.484375 -174.167969 C 105.132812 -174.167969 91.476562 -169.3125 82.523438 -159.597656 C 73.480469 -149.785156 68.957031 -134.796875 68.957031 -114.636719 L 68.957031 4.328125 L 25.292969 4.328125 L 25.292969 -215.136719 L 68.957031 -215.136719 L 68.957031 -176.574219 L 64.628906 -176.574219 Z M 68.484375 -174.605469 L 60.300781 -176.574219 L 60.300781 -210.8125 L 64.628906 -210.8125 L 64.628906 -206.484375 L 29.621094 -206.484375 L 29.621094 -210.8125 L 33.949219 -210.8125 L 33.949219 0 L 29.621094 0 L 29.621094 -4.328125 L 64.628906 -4.328125 L 64.628906 0 L 60.300781 0 L 60.300781 -114.636719 C 60.300781 -137.050781 65.585938 -153.992188 76.160156 -165.464844 C 86.828125 -177.039062 102.601562 -182.824219 123.484375 -182.824219 L 132.71875 -182.824219 L 132.71875 -178.496094 L 128.390625 -178.496094 L 128.390625 -214.65625 L 132.71875 -214.65625 L 132.71875 -210.328125 C 117.085938 -210.328125 103.902344 -207.191406 93.164062 -200.917969 C 82.480469 -194.675781 74.253906 -185.90625 68.484375 -174.605469 Z M 68.484375 -174.605469 "/></g></g></g><g fill="#004b6b" fill-opacity="1"><g transform="translate(0.284996, 404.099761)"><g><path d="M 16.546875 -106.171875 C 16.546875 -127.710938 20.90625 -146.625 29.625 -162.90625 C 38.34375 -179.195312 50.332031 -191.828125 65.59375 -200.796875 C 80.851562 -209.773438 97.96875 -214.265625 116.9375 -214.265625 C 133.351562 -214.265625 148.613281 -210.484375 162.71875 -202.921875 C 176.820312 -195.359375 187.59375 -185.421875 195.03125 -173.109375 L 195.03125 -284.671875 L 230.421875 -284.671875 L 230.421875 0 L 195.03125 0 L 195.03125 -39.625 C 188.113281 -27.050781 177.859375 -16.722656 164.265625 -8.640625 C 150.671875 -0.566406 134.769531 3.46875 116.5625 3.46875 C 97.84375 3.46875 80.851562 -1.144531 65.59375 -10.375 C 50.332031 -19.613281 38.34375 -32.566406 29.625 -49.234375 C 20.90625 -65.910156 16.546875 -84.890625 16.546875 -106.171875 Z M 195.03125 -105.78125 C 195.03125 -121.6875 191.820312 -135.535156 185.40625 -147.328125 C 179 -159.128906 170.347656 -168.171875 159.453125 -174.453125 C 148.554688 -180.734375 136.566406 -183.875 123.484375 -183.875 C 110.398438 -183.875 98.472656 -180.796875 87.703125 -174.640625 C 76.929688 -168.492188 68.335938 -159.519531 61.921875 -147.71875 C 55.515625 -135.925781 52.3125 -122.078125 52.3125 -106.171875 C 52.3125 -90.015625 55.515625 -75.972656 61.921875 -64.046875 C 68.335938 -52.117188 76.929688 -43.015625 87.703125 -36.734375 C 98.472656 -30.453125 110.398438 -27.3125 123.484375 -27.3125 C 136.566406 -27.3125 148.554688 -30.453125 159.453125 -36.734375 C 170.347656 -43.015625 179 -52.117188 185.40625 -64.046875 C 191.820312 -75.972656 195.03125 -89.882812 195.03125 -105.78125 Z M 195.03125 -105.78125 "/></g></g></g><g fill="#004b6b" fill-opacity="1"><g transform="translate(250.718244, 404.099761)"><g><path d="M 121.5625 3.46875 C 101.8125 3.46875 83.921875 -1.019531 67.890625 -10 C 51.867188 -18.976562 39.304688 -31.738281 30.203125 -48.28125 C 21.097656 -64.820312 16.546875 -83.988281 16.546875 -105.78125 C 16.546875 -127.332031 21.222656 -146.378906 30.578125 -162.921875 C 39.941406 -179.460938 52.703125 -192.15625 68.859375 -201 C 85.015625 -209.84375 103.09375 -214.265625 123.09375 -214.265625 C 143.101562 -214.265625 161.1875 -209.84375 177.34375 -201 C 193.5 -192.15625 206.253906 -179.523438 215.609375 -163.109375 C 224.972656 -146.691406 229.65625 -127.582031 229.65625 -105.78125 C 229.65625 -83.988281 224.847656 -64.820312 215.234375 -48.28125 C 205.617188 -31.738281 192.601562 -18.976562 176.1875 -10 C 159.769531 -1.019531 141.5625 3.46875 121.5625 3.46875 Z M 121.5625 -27.3125 C 134.125 -27.3125 145.921875 -30.257812 156.953125 -36.15625 C 167.984375 -42.0625 176.894531 -50.910156 183.6875 -62.703125 C 190.476562 -74.503906 193.875 -88.863281 193.875 -105.78125 C 193.875 -122.707031 190.539062 -137.066406 183.875 -148.859375 C 177.207031 -160.660156 168.488281 -169.445312 157.71875 -175.21875 C 146.945312 -180.988281 135.28125 -183.875 122.71875 -183.875 C 109.894531 -183.875 98.160156 -180.988281 87.515625 -175.21875 C 76.867188 -169.445312 68.335938 -160.660156 61.921875 -148.859375 C 55.515625 -137.066406 52.3125 -122.707031 52.3125 -105.78125 C 52.3125 -88.601562 55.453125 -74.113281 61.734375 -62.3125 C 68.023438 -50.519531 76.425781 -41.738281 86.9375 -35.96875 C 97.457031 -30.195312 109 -27.3125 121.5625 -27.3125 Z M 121.5625 -27.3125 "/></g></g></g><g fill="#004b6b" fill-opacity="1"><g transform="translate(487.302593, 404.099761)"><g><path d="M 72.328125 -181.953125 L 72.328125 -57.703125 C 72.328125 -47.441406 74.503906 -40.195312 78.859375 -35.96875 C 83.222656 -31.738281 90.789062 -29.625 101.5625 -29.625 L 127.328125 -29.625 L 127.328125 0 L 95.78125 0 C 76.289062 0 61.671875 -4.484375 51.921875 -13.453125 C 42.179688 -22.429688 37.3125 -37.179688 37.3125 -57.703125 L 37.3125 -181.953125 L 10 -181.953125 L 10 -210.8125 L 37.3125 -210.8125 L 37.3125 -263.890625 L 72.328125 -263.890625 L 72.328125 -210.8125 L 127.328125 -210.8125 L 127.328125 -181.953125 Z M 72.328125 -181.953125 "/></g></g></g><g fill="#004b6b" fill-opacity="1"><g transform="translate(617.712399, 404.099761)"><g><path d="M 72.328125 -181.953125 L 72.328125 -57.703125 C 72.328125 -47.441406 74.503906 -40.195312 78.859375 -35.96875 C 83.222656 -31.738281 90.789062 -29.625 101.5625 -29.625 L 127.328125 -29.625 L 127.328125 0 L 95.78125 0 C 76.289062 0 61.671875 -4.484375 51.921875 -13.453125 C 42.179688 -22.429688 37.3125 -37.179688 37.3125 -57.703125 L 37.3125 -181.953125 L 10 -181.953125 L 10 -210.8125 L 37.3125 -210.8125 L 37.3125 -263.890625 L 72.328125 -263.890625 L 72.328125 -210.8125 L 127.328125 -210.8125 L 127.328125 -181.953125 Z M 72.328125 -181.953125 "/></g></g></g><g fill="#004b6b" fill-opacity="1"><g transform="translate(748.122249, 404.099761)"><g><path d="M 47.703125 -245.046875 C 41.035156 -245.046875 35.390625 -247.351562 30.765625 -251.96875 C 26.148438 -256.582031 23.84375 -262.222656 23.84375 -268.890625 C 23.84375 -275.554688 26.148438 -281.195312 30.765625 -285.8125 C 35.390625 -290.4375 41.035156 -292.75 47.703125 -292.75 C 54.109375 -292.75 59.554688 -290.4375 64.046875 -285.8125 C 68.535156 -281.195312 70.78125 -275.554688 70.78125 -268.890625 C 70.78125 -262.222656 68.535156 -256.582031 64.046875 -251.96875 C 59.554688 -247.351562 54.109375 -245.046875 47.703125 -245.046875 Z M 64.625 -210.8125 L 64.625 0 L 29.625 0 L 29.625 -210.8125 Z M 64.625 -210.8125 "/></g></g></g><g fill="#004b6b" fill-opacity="1"><g transform="translate(833.13868, 404.099761)"><g><path d="M 64.625 -176.578125 C 70.78125 -188.628906 79.5625 -197.988281 90.96875 -204.65625 C 102.382812 -211.320312 116.300781 -214.65625 132.71875 -214.65625 L 132.71875 -178.5 L 123.484375 -178.5 C 84.242188 -178.5 64.625 -157.210938 64.625 -114.640625 L 64.625 0 L 29.625 0 L 29.625 -210.8125 L 64.625 -210.8125 Z M 64.625 -176.578125 "/></g></g></g></g></g></g></g></g></svg>